<?xml version="1.0" standalone="no"?>
<!DOCTYPE svg PUBLIC "-//W3C//DTD SVG 20010904//EN"
 "http://www.w3.org/TR/2001/REC-SVG-20010904/DTD/svg10.dtd">
<svg version="1.0" xmlns="http://www.w3.org/2000/svg"
 width="1276.000000pt" height="1280.000000pt" viewBox="0 0 1276.000000 1280.000000"
 preserveAspectRatio="xMidYMid meet">
<metadata>
Created by potrace 1.15, written by Peter Selinger 2001-2017
</metadata>
<g transform="translate(0.000000,1280.000000) scale(0.100000,-0.100000)"
fill="#000000" stroke="none">
<path d="M7740 9910 c-667 -51 -1248 -408 -1606 -987 l-58 -93 -1325 0 -1326
0 -40 -23 c-22 -13 -49 -40 -62 -62 l-23 -40 0 -1563 c0 -1326 2 -1567 14
-1590 19 -36 65 -78 99 -91 20 -8 724 -11 2314 -11 l2287 0 44 21 c26 13 54
38 70 62 25 37 27 49 30 173 4 127 5 134 26 138 11 3 50 10 86 16 107 18 305
78 403 121 51 23 100 42 109 43 11 1 98 -111 264 -339 136 -187 324 -446 419
-575 94 -129 181 -249 193 -267 12 -17 43 -44 70 -59 43 -26 56 -29 168 -32
105 -3 126 -1 150 14 47 30 688 599 707 627 40 62 49 280 12 327 -10 14 -80
81 -155 149 -74 68 -243 224 -374 345 -132 122 -325 299 -428 394 l-188 173
20 30 c41 56 159 315 194 424 74 230 99 389 98 635 0 258 -26 412 -108 662
-37 112 -139 329 -201 426 -263 414 -664 720 -1133 867 -229 72 -508 104 -750
85z m337 -280 c220 -30 394 -83 588 -180 191 -96 304 -179 465 -340 208 -208
345 -431 434 -708 60 -187 79 -317 80 -537 0 -223 -20 -350 -84 -546 -120
-365 -352 -681 -661 -901 -399 -284 -917 -391 -1396 -288 -340 73 -634 233
-883 480 -251 248 -420 564 -492 921 -20 99 -23 143 -23 339 0 206 3 235 27
351 162 754 765 1310 1528 1408 95 12 327 13 417 1z m-2137 -1124 c0 -2 -13
-54 -30 -116 -48 -185 -64 -313 -64 -520 0 -200 15 -326 59 -501 204 -805 886
-1416 1700 -1524 66 -8 168 -18 228 -21 117 -6 129 -15 85 -61 l-21 -23 -2181
0 -2180 0 -23 22 -23 21 0 1343 0 1343 26 20 c27 21 28 21 1225 21 660 0 1199
-2 1199 -4z"/>
<path d="M7780 9209 c-74 -14 -165 -65 -213 -119 -56 -63 -77 -122 -77 -219 0
-150 89 -265 248 -323 84 -31 243 -31 332 0 156 54 243 171 244 327 1 238
-243 391 -534 334z"/>
<path d="M7530 7500 l0 -900 370 0 370 0 0 900 0 900 -370 0 -370 0 0 -900z"/>
<path d="M3376 5255 c-8 -19 -59 -92 -114 -162 -54 -71 -195 -254 -312 -408
-118 -154 -293 -383 -390 -510 -97 -126 -261 -340 -363 -474 l-187 -243 0
-112 c0 -100 3 -117 26 -164 14 -28 48 -71 75 -96 93 -84 -276 -76 3599 -76
3876 0 3506 -8 3599 76 58 52 96 126 106 204 l6 55 -187 270 c-212 307 -404
585 -617 892 -81 117 -219 316 -307 443 -88 127 -169 248 -179 269 l-20 39
-763 6 c-1638 13 -3445 26 -3695 26 l-263 0 -14 -35z m4924 -547 c135 -193
246 -357 248 -364 3 -12 -442 -14 -2818 -14 -2684 0 -2820 1 -2810 18 5 9 70
108 143 219 72 112 175 268 227 348 l94 145 2336 0 2335 0 245 -352z m-1928
-668 c20 -91 37 -169 38 -174 0 -7 -1320 1 -1328 9 -1 1 13 74 33 162 19 88
35 163 35 166 0 4 267 6 593 5 l592 -3 37 -165z m-1228 -247 c-3 -16 -8 -36
-11 -45 -4 -17 14 -18 276 -18 l281 0 0 45 c0 45 0 45 35 45 35 0 35 0 35 -45
l0 -45 275 0 275 0 -7 45 -6 45 36 0 c35 0 35 -1 42 -51 4 -27 5 -53 2 -56 -3
-3 -299 -2 -657 2 l-652 8 6 30 c3 16 6 38 6 48 0 15 7 19 35 19 33 0 35 -2
29 -27z m-1496 -193 c49 0 52 -2 52 -25 l0 -25 -135 0 c-74 0 -135 3 -135 8 0
4 7 18 16 31 16 22 21 23 83 17 36 -3 90 -6 119 -6z m4346 -16 c16 -42 12 -44
-119 -44 l-125 0 0 30 0 30 119 0 c99 0 120 -3 125 -16z"/>
<path d="M3593 4984 c-12 -19 -13 -28 -4 -33 8 -5 4 -11 -13 -19 -31 -14 -63
-71 -47 -82 7 -4 3 -11 -12 -17 -25 -12 -70 -77 -60 -87 9 -8 626 -6 639 2 19
12 44 70 38 86 -4 11 0 16 15 16 12 0 21 -4 21 -10 0 -5 -4 -10 -9 -10 -11 0
-41 -72 -34 -82 6 -10 245 -10 259 0 14 10 34 69 28 85 -2 7 4 13 16 14 11 1
20 -2 20 -8 0 -5 -4 -9 -9 -9 -8 0 -25 -48 -26 -75 0 -5 11 -12 25 -16 14 -4
-23 -7 -83 -8 l-108 -1 -18 -42 c-10 -24 -17 -46 -14 -50 2 -5 65 -8 139 -8
130 0 135 1 143 23 23 62 23 67 -1 76 -18 8 -10 10 37 9 42 0 51 -2 31 -7 -22
-5 -32 -15 -42 -45 -8 -21 -11 -42 -8 -47 9 -15 260 -11 272 4 6 6 12 28 14
47 l3 35 -85 3 c-74 3 -81 4 -60 15 29 15 49 75 28 88 -8 6 -1 9 21 9 30 0 33
-2 18 -13 -10 -6 -20 -29 -24 -50 l-6 -37 124 0 c68 0 129 4 135 8 19 12 28
73 13 83 -10 6 -3 9 20 9 30 0 33 -2 19 -12 -9 -7 -18 -29 -20 -48 l-3 -35
124 -3 c82 -2 128 1 137 9 17 14 18 76 2 82 -7 3 2 6 21 6 31 1 33 0 17 -12
-12 -9 -17 -23 -14 -47 l3 -35 130 0 130 0 3 39 c2 24 -2 42 -10 47 -8 6 -1 9
22 9 29 -1 32 -2 18 -11 -12 -6 -18 -22 -18 -45 0 -29 5 -37 23 -42 12 -4 -18
-9 -73 -12 l-94 -5 -8 -39 c-5 -22 -5 -43 0 -48 5 -5 67 -7 138 -6 l129 3 0
45 c0 42 -2 45 -30 51 -22 5 -15 7 29 8 53 1 58 -1 41 -13 -21 -15 -27 -40
-20 -73 5 -22 9 -23 140 -23 l135 0 0 44 c0 39 -3 45 -27 54 -22 8 -8 11 70
11 l97 1 0 40 c0 27 -6 42 -17 49 -15 8 -11 10 17 10 19 0 29 -3 23 -6 -16 -6
-17 -47 -3 -74 10 -17 22 -19 135 -19 68 0 126 3 128 8 11 19 -7 74 -27 82
-17 7 -13 9 19 9 22 -1 34 -3 28 -6 -16 -6 -17 -47 -3 -74 6 -10 21 -20 33
-21 12 -1 -21 -4 -73 -7 -86 -5 -95 -8 -98 -27 -2 -11 2 -32 7 -47 l11 -27
128 0 c71 0 131 2 134 5 3 3 1 24 -4 45 -7 28 -17 42 -37 49 -23 8 -20 10 23
10 43 1 47 -1 32 -12 -15 -11 -16 -17 -4 -52 l13 -40 124 -3 c69 -1 131 0 138
2 17 7 -3 65 -31 88 -21 17 -21 18 17 18 33 0 36 -2 26 -18 -8 -13 -7 -27 4
-55 l16 -37 129 0 c71 0 131 3 134 6 11 10 -24 82 -46 92 -18 9 -16 11 18 11
32 1 36 -1 27 -13 -9 -11 -8 -23 6 -53 l18 -38 133 -3 c72 -1 132 1 132 6 0
24 -24 74 -40 82 -10 6 -54 11 -97 11 -43 1 -70 3 -60 6 21 5 21 5 2 48 -8 20
-24 39 -37 45 -18 7 -9 9 37 8 33 0 50 -3 38 -5 -27 -5 -27 -7 -5 -53 17 -34
19 -35 83 -38 l66 -3 23 -50 c13 -28 31 -54 40 -59 9 -6 -72 -10 -213 -10
-254 0 -252 1 -220 -66 l18 -39 243 -3 c190 -2 242 0 242 10 0 7 -11 32 -25
56 -22 40 -23 42 -5 42 11 0 17 -5 15 -12 -3 -7 5 -31 18 -53 l23 -40 137 -3
c84 -1 137 1 137 7 0 13 -41 84 -54 93 -5 3 -10 15 -11 25 -2 10 -25 56 -52
103 l-49 85 -75 6 -74 5 62 2 c34 1 64 6 67 10 7 12 -42 82 -57 82 -7 0 -4 5
6 11 9 6 27 7 38 4 18 -6 19 -8 5 -18 -15 -11 -14 -16 9 -49 16 -24 34 -38 48
-39 17 -1 18 -2 5 -6 -10 -2 -18 -8 -18 -11 0 -18 43 -75 61 -79 15 -4 17 -9
9 -18 -8 -10 -5 -24 15 -54 l25 -41 130 0 c81 0 130 4 130 10 0 22 -46 79 -69
85 -19 5 -22 8 -11 15 11 7 9 16 -13 49 -27 40 -28 41 -90 43 l-62 1 55 6 c30
3 53 11 52 16 -10 29 -38 66 -54 71 -10 3 -16 9 -13 14 3 5 0 20 -6 34 -14 31
-62 40 -170 33 -95 -7 -80 -7 -182 -1 -91 6 -137 1 -137 -17 0 -5 11 -21 25
-34 l24 -25 -31 0 c-24 0 -29 3 -21 11 8 8 8 18 1 35 -13 29 -64 38 -169 31
-41 -3 -80 -5 -86 -5 -13 1 -224 1 -245 0 -7 0 -61 2 -121 5 -105 4 -107 4
-116 -19 -7 -15 -10 -18 -10 -7 -1 9 -8 20 -17 23 -26 10 -212 7 -219 -4 -4
-7 -12 -7 -25 0 -25 14 -213 13 -227 -1 -8 -8 -13 -8 -17 0 -9 15 -222 15
-231 1 -5 -8 -11 -8 -19 -1 -8 7 -182 10 -497 8 l-484 -2 0 -32 c0 -29 -3 -33
-25 -33 -22 1 -23 2 -7 11 9 5 17 21 17 34 l0 25 -115 0 c-98 0 -115 -2 -124
-17 -10 -17 -10 -17 -11 0 0 15 -12 17 -113 17 -75 0 -117 -4 -125 -12 -9 -9
-12 -9 -12 0 0 8 -96 11 -370 11 l-370 0 -17 -25z m502 -14 c-5 -16 -2 -20 14
-20 12 0 21 -4 21 -10 0 -5 -5 -10 -11 -10 -5 0 -17 -16 -25 -36 -13 -30 -13
-38 -2 -45 8 -6 -2 -9 -27 -8 -32 0 -36 2 -19 9 23 9 50 63 39 79 -3 6 -13 11
-20 11 -10 0 -8 7 8 24 28 30 30 31 22 6z m1029 -22 c6 -4 -2 -7 -19 -7 -16 0
-24 3 -17 6 6 2 13 14 13 26 1 21 2 21 6 2 3 -11 10 -23 17 -27z m-748 2 c13
0 24 -4 24 -10 0 -5 -4 -10 -9 -10 -5 0 -15 -16 -21 -36 -10 -30 -10 -38 1
-45 9 -6 0 -8 -26 -8 -22 1 -32 3 -22 6 9 2 24 21 32 41 17 38 9 52 -27 52
-17 0 -17 1 0 18 12 13 18 14 20 5 2 -7 14 -13 28 -13z m998 -2 c6 -4 -2 -7
-19 -7 -16 0 -24 3 -17 6 6 2 12 12 13 21 0 14 2 14 6 2 3 -8 11 -18 17 -22z
m1005 0 c12 -16 11 -18 -13 -18 -23 0 -25 2 -14 20 7 10 13 18 13 17 0 -1 7
-10 14 -19z m-2531 -12 c-8 -6 -23 -26 -32 -45 -15 -28 -15 -35 -4 -42 8 -6
-1 -8 -27 -8 -26 0 -34 3 -22 7 9 4 27 23 38 42 19 31 20 35 4 46 -15 11 -15
13 2 16 10 2 27 2 37 -1 16 -3 17 -6 4 -15z m762 14 c12 -8 9 -10 -13 -10 -16
0 -26 4 -22 10 8 12 16 12 35 0z m1018 -8 c2 -7 -6 -12 -17 -12 -21 0 -27 11
-14 24 9 9 26 2 31 -12z m243 -10 c-28 -4 -40 6 -21 18 9 6 20 4 29 -3 12 -10
11 -13 -8 -15z m259 13 c11 -13 8 -15 -21 -15 -31 0 -32 1 -13 15 10 8 20 15
20 15 1 0 7 -7 14 -15z m519 -12 c2 -2 -10 -3 -29 -3 -28 0 -31 2 -20 15 10
12 16 13 29 3 9 -7 18 -14 20 -15z m210 -1 c-40 -3 -41 -4 -35 -34 10 -49 23
-58 90 -59 33 -1 53 -3 44 -6 -21 -5 -22 -10 -7 -52 6 -18 21 -36 33 -41 16
-7 11 -9 -24 -8 -25 0 -37 2 -27 5 21 5 21 11 2 57 -15 36 -15 36 -78 36 -39
0 -57 4 -48 9 21 14 5 80 -22 91 -18 7 -15 9 20 9 23 1 45 5 48 11 4 6 13 5
26 -3 18 -11 16 -12 -22 -15z m261 0 c-17 -2 -30 -9 -30 -17 0 -26 22 -63 44
-73 18 -9 15 -11 -23 -11 -38 -1 -42 1 -28 12 15 10 16 17 5 44 -6 17 -21 36
-32 42 -19 9 -18 10 11 10 17 1 35 5 38 11 4 6 13 5 26 -3 19 -11 18 -12 -11
-15z m-2470 -29 c-13 -27 -15 -42 -8 -50 8 -10 3 -13 -23 -12 -19 1 -26 3 -17
6 18 5 43 66 33 83 -3 5 3 10 14 10 19 0 19 -1 1 -37z m288 25 c-19 -15 -26
-56 -15 -75 6 -9 0 -13 -20 -13 -21 0 -24 3 -14 9 9 6 15 26 15 50 1 37 4 41
25 41 22 0 23 -1 9 -12z m275 5 c-19 -7 -28 -73 -12 -84 10 -6 5 -9 -16 -9
-17 0 -25 4 -19 8 14 9 21 62 11 80 -6 8 0 12 20 11 15 0 23 -3 16 -6z m271
-1 c-14 -9 -21 -62 -11 -80 6 -8 0 -12 -20 -12 -16 0 -23 3 -16 8 18 12 27 60
13 77 -11 13 -8 15 16 15 16 0 24 -4 18 -8z m269 1 c-7 -2 -13 -22 -13 -43 0
-21 6 -41 13 -43 6 -3 -1 -5 -18 -5 -16 0 -24 2 -17 5 15 6 16 65 0 81 -9 9
-5 12 18 11 16 0 23 -3 17 -6z m273 -6 c-14 -10 -17 -21 -11 -45 3 -18 11 -32
16 -32 5 0 9 -4 9 -10 0 -5 -11 -10 -25 -10 -24 0 -34 14 -16 24 13 8 1 59
-17 74 -13 10 -10 12 23 12 35 0 37 -1 21 -13z m265 4 c-17 -11 -5 -71 18 -88
14 -11 11 -12 -18 -13 -28 0 -32 2 -21 15 15 18 4 72 -18 85 -13 7 -10 9 18
10 23 0 30 -3 21 -9z m270 0 c-19 -12 -5 -67 22 -86 21 -14 20 -15 -17 -15
-33 0 -37 2 -26 15 15 18 4 72 -18 85 -13 7 -10 9 18 10 23 0 30 -3 21 -9z
m-2671 -91 c0 -5 -9 -10 -20 -10 -11 0 -20 5 -20 10 0 6 9 10 20 10 11 0 20
-4 20 -10z m1953 -7 c-8 -2 -13 -22 -13 -44 0 -32 4 -41 23 -49 17 -7 9 -9
-33 -8 -38 0 -47 2 -30 7 32 9 42 68 14 88 -16 12 -14 13 17 12 19 0 28 -3 22
-6z m835 -3 c-14 -8 -14 -15 -5 -46 6 -20 20 -40 32 -44 15 -7 9 -9 -24 -9
-38 -1 -42 1 -28 12 23 17 9 68 -24 84 -22 12 -21 13 21 13 34 -1 41 -3 28
-10z m829 4 c-3 -3 -12 -4 -19 -1 -8 3 -5 6 6 6 11 1 17 -2 13 -5z m286 -1
c-7 -2 -19 -2 -25 0 -7 3 -2 5 12 5 14 0 19 -2 13 -5z m-3166 -99 c-3 -3 -12
-4 -19 -1 -8 3 -5 6 6 6 11 1 17 -2 13 -5z"/>
<path d="M3415 4693 c-14 -21 -25 -43 -25 -50 0 -11 50 -13 242 -11 l242 3 23
40 c12 21 19 43 17 47 -3 4 -111 8 -239 8 l-234 0 -26 -37z"/>
<path d="M3940 4690 c-11 -21 -20 -44 -20 -50 0 -6 48 -10 135 -10 l135 0 20
40 c11 23 18 45 15 50 -4 6 -63 10 -135 10 l-130 0 -20 -40z"/>
<path d="M4820 4705 c-6 -15 -10 -37 -10 -51 l0 -24 135 0 c149 0 140 -4 148
70 l2 25 -133 3 -132 3 -10 -26z"/>
<path d="M5114 4715 c-3 -8 -7 -29 -8 -47 l-1 -33 135 0 135 0 0 45 0 45 -128
3 c-106 2 -128 0 -133 -13z"/>
<path d="M5981 4721 c-10 -7 -11 -18 -4 -47 l9 -39 134 0 135 0 -3 35 c-2 19
-9 41 -14 48 -12 14 -234 17 -257 3z"/>
<path d="M3368 4608 c-22 -19 -59 -84 -51 -91 8 -9 306 -9 328 -1 15 6 55 73
55 94 0 16 -312 14 -332 -2z"/>
<path d="M3732 4613 c-17 -7 -54 -81 -47 -93 8 -12 255 -13 274 -1 16 10 52
87 43 95 -7 7 -252 6 -270 -1z"/>
<path d="M4034 4612 c-16 -10 -45 -82 -38 -93 6 -11 254 -12 271 -1 15 9 44
88 36 96 -9 9 -256 7 -269 -2z"/>
<path d="M4334 4613 c-12 -9 -34 -67 -34 -90 0 -11 26 -13 137 -11 137 3 138
3 150 29 7 14 14 37 15 50 l3 24 -130 3 c-71 1 -135 -1 -141 -5z"/>
<path d="M4632 4608 c-13 -17 -32 -85 -24 -92 3 -3 65 -6 137 -6 148 0 152 2
157 65 l3 40 -131 3 c-97 2 -134 -1 -142 -10z"/>
<path d="M4932 4608 c-5 -7 -12 -31 -14 -53 l-3 -40 140 0 139 0 8 40 c5 21 6
45 4 52 -7 18 -259 19 -274 1z"/>
<path d="M5230 4600 c-6 -12 -10 -35 -8 -53 l3 -32 129 -3 c148 -3 158 1 154
62 l-3 41 -132 3 c-125 2 -133 1 -143 -18z"/>
<path d="M5531 4606 c-7 -8 -11 -32 -9 -53 l3 -38 140 0 140 0 3 44 c2 28 -1
47 -10 52 -7 5 -68 9 -134 9 -93 0 -124 -3 -133 -14z"/>
<path d="M5833 4613 c-15 -6 -17 -42 -3 -78 l10 -26 132 3 133 3 3 32 c2 18
-2 41 -8 53 -10 19 -20 20 -133 19 -67 0 -128 -3 -134 -6z"/>
<path d="M6124 4605 c-3 -8 -2 -32 3 -52 l9 -38 129 -3 c71 -1 134 -1 141 2
15 6 -1 86 -19 98 -7 4 -67 8 -135 8 -99 0 -124 -3 -128 -15z"/>
<path d="M6425 4609 c-10 -14 4 -82 18 -91 17 -11 265 -10 271 0 7 12 -14 86
-28 94 -18 12 -254 9 -261 -3z"/>
<path d="M6716 4611 c-6 -10 12 -69 27 -89 7 -9 44 -12 141 -10 l131 3 -3 24
c-1 13 -8 36 -15 50 -12 26 -13 26 -144 29 -72 1 -134 -2 -137 -7z"/>
<path d="M7806 4612 c-2 -4 9 -29 25 -55 l29 -47 135 0 c74 0 135 3 135 8 0
13 -41 77 -58 90 -18 14 -257 18 -266 4z"/>
<path d="M3265 4448 c-25 -38 -31 -54 -22 -60 14 -9 478 -11 502 -2 18 7 67
98 58 108 -4 3 -118 6 -254 6 l-248 0 -36 -52z"/>
<path d="M3834 4492 c-17 -11 -55 -91 -49 -102 8 -13 265 -13 284 -1 16 10 52
97 43 105 -8 9 -265 7 -278 -2z"/>
<path d="M4137 4485 c-20 -19 -40 -81 -32 -95 8 -13 250 -13 275 0 18 10 40
59 40 91 0 18 -10 19 -134 19 -106 0 -138 -3 -149 -15z"/>
<path d="M4445 4491 c-3 -6 -12 -29 -20 -52 -12 -34 -13 -44 -3 -51 7 -4 70
-8 140 -8 97 0 130 3 141 15 16 16 31 80 22 95 -8 13 -272 13 -280 1z"/>
<path d="M4753 4488 c-18 -23 -26 -90 -11 -99 15 -10 1528 -12 1552 -3 13 5
15 15 10 48 -4 22 -11 47 -17 54 -7 9 -173 12 -767 12 -594 0 -760 -3 -767
-12z"/>
<path d="M6315 4491 c-11 -19 7 -92 26 -101 22 -12 249 -13 267 -1 11 7 11 17
2 52 -7 24 -17 47 -24 51 -16 11 -264 10 -271 -1z"/>
<path d="M6616 4492 c-3 -4 0 -27 6 -51 8 -31 18 -45 37 -53 27 -10 255 -8
266 3 3 4 -3 28 -12 55 l-19 49 -136 3 c-75 1 -139 -1 -142 -6z"/>
<path d="M6920 4480 c0 -11 6 -36 14 -55 11 -26 22 -35 49 -40 43 -8 293 -2
302 7 9 9 -22 90 -38 100 -7 4 -83 8 -169 8 -152 0 -158 -1 -158 -20z"/>
<path d="M7276 4491 c-3 -5 3 -29 14 -54 19 -42 24 -46 65 -53 44 -6 233 1
242 10 6 6 -37 89 -51 98 -16 11 -264 10 -270 -1z"/>
<path d="M7577 4494 c-3 -4 5 -28 19 -55 l24 -49 140 0 c98 0 140 3 140 11 0
14 -40 81 -54 91 -13 9 -260 11 -269 2z"/>
<path d="M7876 4491 c-3 -4 7 -28 23 -53 24 -38 35 -46 67 -51 51 -8 230 -4
239 5 8 7 -26 68 -52 93 -11 12 -43 15 -143 15 -71 0 -131 -4 -134 -9z"/>
<path d="M5214 4163 c-4 -16 -19 -82 -34 -148 l-26 -120 580 -5 c320 -3 584
-3 588 0 5 3 -7 71 -25 150 l-33 145 -522 3 -522 2 -6 -27z"/>
</g>
</svg>
